<?xml version="1.0" encoding="UTF-8"?><svg id="Layer_1" xmlns="http://www.w3.org/2000/svg" viewBox="0 0 1000 912.92"><defs><style>.cls-1{fill:#0f192b;}</style></defs><path class="cls-1" d="M348.67,2.79l-1.17-.06v7.93l.9.18c6.72,1.41,14.53,4.8,15.79,6.93,1.83,2.85,1.95,17.08,1.95,40.2v28.85h-94.5v-28.85c0-23.11.12-37.34,1.95-40.23,1.23-2.01,9.04-5.43,15.79-6.9l.9-.18V2.73l-1.17.06c-8.86.24-52.23.24-61.06,0l-1.17-.06v7.93l.9.18c6.87,1.44,14.83,4.83,16.06,6.93,1.83,2.85,1.95,17.08,1.95,40.2v73.7c0,23.14-.12,37.37-1.95,40.26-1.23,2.04-9.19,5.46-16.06,6.9l-.9.18v7.9l1.17-.03c8.86-.27,52.2-.27,61.06,0l1.17.03v-7.9l-.9-.18c-6.72-1.41-14.53-4.83-15.79-6.93-1.83-2.85-1.95-17.08-1.95-40.23v-32.81h94.5v32.81c0,23.14-.12,37.37-1.95,40.26-1.26,2.07-9.07,5.49-15.79,6.9l-.9.18v7.9l1.17-.03c8.86-.27,52.23-.27,61.06,0l1.17.03v-7.9l-.9-.18c-6.87-1.44-14.83-4.86-16.06-6.93-1.83-2.85-1.95-17.08-1.95-40.23V57.97c0-22.93.12-37.07,1.95-39.96,1.29-2.13,9.55-5.82,16.06-7.17l.9-.18V2.73l-1.17.06c-8.83.24-52.2.24-61.06,0Z"/><path class="cls-1" d="M539.53,186.87l1.17.03v-7.9l-.9-.18c-6.42-1.35-13.96-4.77-15.28-6.93-1.8-2.85-1.92-17.08-1.92-40.23V57.97c0-23.11.12-37.34,1.95-40.23,1.29-2.16,8.83-5.58,15.25-6.9l.9-.18V2.73l-1.17.06c-8.77.24-51.75.24-60.55,0l-1.14-.06v7.93l.9.18c6.84,1.44,14.8,4.83,16.06,6.93,1.8,2.85,1.95,17.08,1.95,40.2v73.7c0,23.14-.15,37.37-1.98,40.26-1.23,2.04-9.16,5.46-16.03,6.9l-.9.18v7.9l1.14-.03c8.77-.27,51.78-.27,60.55,0Z"/><path class="cls-1" d="M753.06,187.05l.18-.99c2.79-18.19,4.35-31.97,6.09-49.62l.09-1.05-7.99-1.41-.36.84c-1.62,3.72-2.82,6.63-3.84,9.07-2.16,5.19-3.33,8.05-5.64,12.31-3.27,6.03-5.31,9.22-9.97,12.31-5.91,3.84-11.77,6.18-43.41,6.18-29.69,0-30.65-1.62-31.91-3.72-1.8-2.85-1.95-18.19-1.95-41.28V57.31c0-25.82.27-37.04,1.98-39.69,1.23-2.07,9.16-5.49,16.03-6.9l.9-.21V2.61l-1.17.03c-8.59.27-52.74.27-61.33,0l-1.17-.03v7.9l.9.21c6.87,1.41,14.83,4.83,16.09,6.9,1.65,2.64,1.92,13.87,1.92,39.69v73.7c0,22.78-.12,37.91-1.95,40.77-1.23,2.07-9.19,5.49-16.06,6.9l-.9.21v7.9l1.17-.03c9.73-.3,131.06-.27,141.3.27l.99.03Z"/><path class="cls-1" d="M883.46,189.39c54.96,0,93.36-39.72,93.36-96.54,0-52.95-39.32-92.85-91.5-92.85s-94.98,42.63-94.98,97.08,39.14,92.31,93.12,92.31ZM880.28,12.85c30.89,0,67,23.02,67,87.96,0,46.71-23.05,75.74-60.13,75.74-40.86,0-67.24-33.89-67.24-86.37,0-38.48,18.64-77.33,60.37-77.33Z"/><polygon class="cls-1" points="125.84 357.12 23.12 357.12 23.12 277.79 0 277.79 0 459.06 23.12 459.06 23.12 378.67 125.84 378.67 125.84 459.06 148.96 459.06 148.96 277.79 125.84 277.79 125.84 357.12"/><path class="cls-1" d="M348.81,286.98c-14.45-8.23-30.61-12.35-48.47-12.35s-33.75,4.12-48.2,12.35c-14.45,8.24-25.79,19.49-34.02,33.76-8.23,14.28-12.35,30.17-12.35,47.69s4.11,33.41,12.35,47.68c8.23,14.28,19.58,25.53,34.02,33.76,14.45,8.23,30.51,12.35,48.2,12.35s34.02-4.11,48.47-12.35c14.45-8.23,25.83-19.48,34.15-33.76,8.32-14.27,12.48-30.17,12.48-47.68s-4.16-33.41-12.48-47.69c-8.32-14.27-19.7-25.52-34.15-33.76ZM362.47,404.81c-6.22,10.94-14.75,19.53-25.61,25.74-10.86,6.22-23.04,9.33-36.52,9.33s-25.4-3.11-36.25-9.33c-10.86-6.21-19.36-14.75-25.48-25.61-6.14-10.86-9.19-23.03-9.19-36.52s3.1-25.44,9.32-36.39c6.22-10.94,14.75-19.53,25.62-25.74,10.86-6.22,22.94-9.33,36.26-9.33s25.39,3.11,36.26,9.33c10.85,6.22,19.39,14.76,25.61,25.61,6.22,10.86,9.33,23.03,9.33,36.52s-3.11,25.44-9.33,36.38Z"/><polygon class="cls-1" points="554.81 424.74 489 277.78 458.52 277.78 458.52 459.06 481.64 459.06 481.64 315.62 546.01 459.06 563.08 459.06 627.71 315.57 627.71 459.06 650.57 459.06 650.57 277.78 620.88 277.78 554.81 424.74"/><polygon class="cls-1" points="751.38 378.67 819.68 378.67 819.68 357.12 751.38 357.12 751.38 299.33 828.35 299.33 828.35 277.79 751.38 277.79 743.76 277.79 728.26 277.79 728.26 459.06 751.38 459.06 751.38 459.06 829.67 459.06 829.67 437.51 751.38 437.51 751.38 378.67"/><path class="cls-1" d="M986.08,375.91c-9.28-8.49-22.42-14.93-39.41-19.31-12.44-3.16-21.76-7.4-27.98-12.74-6.22-5.34-9.33-12.22-9.33-20.63,0-5.25,1.4-9.98,4.21-14.18,2.79-4.2,6.61-7.53,11.43-9.98,4.82-2.45,10.2-3.68,16.15-3.68s11.39,1.36,16.29,4.07c4.9,2.72,8.8,6.48,11.69,11.3,2.89,4.82,4.33,10.11,4.33,15.89h23.39c0-9.81-2.41-18.65-7.23-26.53-4.82-7.88-11.48-14.09-19.97-18.65-8.5-4.55-17.99-6.83-28.51-6.83s-19.96,2.19-28.37,6.57c-8.4,4.38-15.02,10.34-19.83,17.87-4.82,7.53-7.22,15.94-7.22,25.22,0,14.02,4.46,25.35,13.39,34.02,8.93,8.67,21.19,14.93,36.78,18.78,13.49,3.33,23.6,7.8,30.34,13.4,6.75,5.6,10.12,12.7,10.12,21.28,0,5.61-1.53,10.64-4.6,15.11-3.07,4.46-7.22,8.01-12.48,10.64-5.25,2.63-11.13,3.94-17.6,3.94s-12.66-1.44-17.99-4.33c-5.35-2.89-9.59-6.87-12.74-11.95-3.15-5.08-4.73-10.77-4.73-17.08h-23.38c0,10.16,2.53,19.36,7.62,27.58,5.07,8.24,12.08,14.71,21.01,19.44,8.94,4.73,18.92,7.09,29.95,7.09s20.76-2.28,29.69-6.83c8.93-4.55,15.98-10.77,21.15-18.65,5.16-7.88,7.75-16.64,7.75-26.27,0-14.54-4.64-26.05-13.92-34.55Z"/><path class="cls-1" d="M105.92,2.57h-31.52v.12h-11.77c-2.76,0-5.97.03-9.31.06-7.02.06-15.01.12-20.95-.06l-1.17-.03v8.17l.93.21c6.81,1.35,14.77,4.77,16.03,6.9,1.83,2.85,1.95,17.11,1.95,40.23v73.7c0,23.11-.12,37.34-1.95,40.23-1.23,2.07-9.19,5.46-16.06,6.9l-.9.18v7.92l1.17-.03c8.77-.27,56.02-.27,64.78,0l1.17.03v-7.92l-.9-.18c-7.65-1.53-17.8-4.95-18.97-6.93-2.22-3.42-2.49-23.57-2.49-40.74v-21.25h30.78l21.07-.45c29.06,0,47.13-19.84,47.13-51.84S147.85,2.57,105.92,2.57ZM105.41,94.94h-29.46v-34.91c0-3.56,0-6.91.02-10.08V17.13h29.44c28.64,0,44.43,14.44,44.43,40.65,0,18.37-5.28,37.16-44.43,37.16Z"/><path class="cls-1" d="M557.4,798.12v-57.4h-57.4c0,31.7-25.7,57.4-57.4,57.4v57.4h57.4c0-31.7,25.7-57.4,57.4-57.4Z"/><path class="cls-1" d="M557.4,798.12v57.4h-57.4c0,31.7,25.7,57.4,57.4,57.4s57.4-25.7,57.4-57.4-25.7-57.4-57.4-57.4Z"/><path class="cls-1" d="M500,740.72c0-31.7-25.7-57.4-57.4-57.4s-57.4,25.7-57.4,57.4,25.7,57.4,57.4,57.4v-57.4h57.4Z"/><rect class="cls-1" x="557.4" y="683.32" width="57.4" height="57.4"/><rect class="cls-1" x="385.2" y="855.52" width="57.4" height="57.4"/></svg>