<?xml version="1.0" encoding="UTF-8"?><svg id="Layer_1" xmlns="http://www.w3.org/2000/svg" viewBox="0 0 1000 1000"><defs><style>.cls-1{fill:#0f192b;}</style></defs><path class="cls-1" d="M750,500v-250h-250c0,138.07-111.93,250-250,250v250h250c0-138.07,111.93-250,250-250Z"/><path class="cls-1" d="M750,500v250h-250c0,138.07,111.93,250,250,250s250-111.93,250-250-111.93-250-250-250Z"/><path class="cls-1" d="M500,250C500,111.93,388.07,0,250,0S0,111.93,0,250s111.93,250,250,250v-250h250Z"/><rect class="cls-1" x="750" width="250" height="250"/><rect class="cls-1" y="750" width="250" height="250"/></svg>